<?xml version="1.0" standalone="no"?>
<!DOCTYPE svg PUBLIC "-//W3C//DTD SVG 20010904//EN"
 "http://www.w3.org/TR/2001/REC-SVG-20010904/DTD/svg10.dtd">
<svg version="1.0" xmlns="http://www.w3.org/2000/svg"
 width="1280.000000pt" height="484.000000pt" viewBox="0 0 1280.000000 484.000000"
 preserveAspectRatio="xMidYMid meet">

<g transform="translate(0.000000,484.000000) scale(0.100000,-0.100000)"
fill="#000000" stroke="none">
<path d="M2365 4833 c-119 -6 -323 -35 -455 -64 -367 -81 -710 -248 -1020
-499 -450 -362 -763 -892 -857 -1446 -26 -155 -26 -572 0 -727 122 -723 597
-1349 1283 -1691 125 -62 322 -141 330 -133 3 2 -24 15 -58 28 -109 40 -247
107 -288 140 -23 19 -43 28 -51 24 -7 -5 -10 -4 -6 2 3 5 -8 17 -26 27 -53 30
-197 127 -197 133 0 3 12 -3 27 -13 79 -51 190 -113 289 -160 109 -52 283
-118 291 -111 2 2 -29 16 -69 31 -40 15 -84 34 -98 42 -16 10 -18 13 -5 8 88
-32 249 -84 259 -83 6 0 -36 17 -94 38 -504 180 -941 514 -1206 923 -163 249
-285 567 -326 845 -17 115 -17 531 0 638 102 638 465 1185 1038 1562 289 190
601 307 974 365 207 32 560 32 770 0 361 -56 680 -175 968 -361 50 -33 92 -58
92 -55 0 9 -196 132 -293 183 -245 129 -578 229 -872 260 -55 6 -116 13 -135
15 -40 5 136 -2 220 -9 l55 -4 -55 10 c-30 6 -91 14 -135 19 l-80 9 103 -5
c136 -6 331 -37 465 -75 60 -17 111 -29 113 -26 2 2 -43 17 -101 33 -58 16
-101 30 -95 32 17 6 227 -57 347 -104 62 -24 158 -66 213 -94 55 -28 100 -48
100 -46 0 21 -279 149 -438 202 -290 96 -689 152 -977 137z m158 -50 c-7 -2
-21 -2 -30 0 -10 3 -4 5 12 5 17 0 24 -2 18 -5z m90 0 c-13 -2 -35 -2 -50 0
-16 2 -5 4 22 4 28 0 40 -2 28 -4z m260 0 c-7 -2 -21 -2 -30 0 -10 3 -4 5 12
5 17 0 24 -2 18 -5z m102 -13 c42 -11 1 -11 -50 -1 -34 7 -35 9 -10 9 17 0 44
-4 60 -8z m68 -17 c-7 -2 -19 -2 -25 0 -7 3 -2 5 12 5 14 0 19 -2 13 -5z m50
-10 c-7 -2 -19 -2 -25 0 -7 3 -2 5 12 5 14 0 19 -2 13 -5z m-2083 -4109 c0 -3
-13 4 -30 16 -16 12 -30 24 -30 26 0 3 14 -4 30 -16 17 -12 30 -24 30 -26z"/>
<path d="M2923 4733 c9 -2 23 -2 30 0 6 3 -1 5 -18 5 -16 0 -22 -2 -12 -5z"/>
<path d="M2978 4723 c6 -2 18 -2 25 0 6 3 1 5 -13 5 -14 0 -19 -2 -12 -5z"/>
<path d="M3028 4713 c7 -3 16 -2 19 1 4 3 -2 6 -13 5 -11 0 -14 -3 -6 -6z"/>
<path d="M3331 4666 c4 -4 214 -90 249 -102 54 -19 -78 44 -152 72 -85 32
-107 39 -97 30z"/>
<path d="M2175 4644 c-16 -2 -82 -11 -145 -20 -695 -95 -1335 -564 -1644
-1204 -317 -659 -293 -1391 67 -2003 205 -348 541 -655 915 -838 113 -55 290
-124 299 -115 2 2 -31 16 -74 31 -94 33 -174 72 -189 93 -7 9 -16 12 -24 7 -9
-6 -11 -4 -5 5 6 10 4 12 -11 6 -10 -4 -15 -4 -11 0 3 4 -33 29 -81 56 -48 28
-94 57 -102 66 -13 13 -11 13 12 -1 62 -38 159 -87 238 -120 118 -48 232 -88
237 -83 2 2 -26 14 -62 26 -86 29 -79 35 9 9 37 -11 70 -18 72 -16 3 3 -8 8
-23 12 -55 13 -230 87 -323 137 -123 65 -270 162 -389 259 -380 305 -633 757
-707 1261 -25 175 -16 489 20 663 54 259 154 501 294 715 92 142 171 237 288
350 371 358 779 551 1294 610 135 16 473 8 594 -14 49 -9 91 -15 93 -12 14 13
-324 54 -487 58 l-75 2 95 7 c64 4 39 5 -74 3 -94 -3 -167 -2 -164 2 4 3 134
10 290 14 295 8 363 4 502 -31 43 -11 80 -18 83 -16 6 7 -161 46 -272 63 -95
15 -471 28 -540 18z m288 -21 c-7 -2 -19 -2 -25 0 -7 3 -2 5 12 5 14 0 19 -2
13 -5z m120 0 c-13 -2 -33 -2 -45 0 -13 2 -3 4 22 4 25 0 35 -2 23 -4z m-490
-40 c-7 -2 -21 -2 -30 0 -10 3 -4 5 12 5 17 0 24 -2 18 -5z m-583 -3993 c8 -5
11 -10 5 -10 -5 0 -17 5 -25 10 -8 5 -10 10 -5 10 6 0 17 -5 25 -10z"/>
<path d="M2653 4603 c9 -2 23 -2 30 0 6 3 -1 5 -18 5 -16 0 -22 -2 -12 -5z"/>
<path d="M2713 4593 c9 -2 23 -2 30 0 6 3 -1 5 -18 5 -16 0 -22 -2 -12 -5z"/>
<path d="M2513 4583 c9 -2 25 -2 35 0 9 3 1 5 -18 5 -19 0 -27 -2 -17 -5z"/>
<path d="M2768 4583 c6 -2 18 -2 25 0 6 3 1 5 -13 5 -14 0 -19 -2 -12 -5z"/>
<path d="M2818 4573 c7 -3 16 -2 19 1 4 3 -2 6 -13 5 -11 0 -14 -3 -6 -6z"/>
<path d="M3645 4530 c28 -16 55 -30 60 -30 6 0 -12 14 -40 30 -27 16 -54 30
-60 30 -5 0 13 -14 40 -30z"/>
<path d="M3060 4540 c8 -5 20 -10 25 -10 6 0 3 5 -5 10 -8 5 -19 10 -25 10 -5
0 -3 -5 5 -10z"/>
<path d="M2838 4513 c7 -3 16 -2 19 1 4 3 -2 6 -13 5 -11 0 -14 -3 -6 -6z"/>
<path d="M2878 4503 c7 -3 16 -2 19 1 4 3 -2 6 -13 5 -11 0 -14 -3 -6 -6z"/>
<path d="M3725 4493 c6 -6 28 -20 50 -32 22 -13 31 -15 20 -6 -22 18 -86 53
-70 38z"/>
<path d="M3940 4286 c0 -2 8 -10 18 -17 15 -13 16 -12 3 4 -13 16 -21 21 -21
13z"/>
<path d="M3745 4039 c-88 -21 -171 -41 -185 -44 -33 -9 -214 -188 -359 -355
-163 -189 -296 -368 -516 -700 l-190 -285 -260 -6 c-252 -7 -415 -19 -540 -40
-313 -53 -569 -183 -675 -341 -52 -78 -71 -142 -77 -255 -7 -115 13 -183 77
-268 82 -110 208 -176 374 -197 79 -10 109 -9 193 5 130 21 191 45 303 119
204 134 338 305 575 733 49 88 93 163 99 167 12 9 580 11 611 2 19 -5 20 -14
20 -317 0 -245 4 -339 18 -437 17 -116 40 -226 50 -236 7 -8 510 15 517 23 4
4 11 18 14 29 6 20 2 22 -56 28 -156 18 -207 46 -252 139 -51 106 -61 192 -61
532 0 338 9 429 76 775 54 278 215 865 241 881 12 8 109 22 114 16 2 -1 -21
-76 -52 -166 -135 -402 -216 -761 -244 -1086 -15 -165 -8 -421 14 -546 14 -77
87 -313 101 -327 3 -4 26 14 51 40 l46 45 -21 42 c-37 72 -80 197 -98 288 -25
125 -25 536 1 708 47 320 170 773 272 1004 13 29 24 57 24 62 0 15 -38 9 -205
-32z m-288 -286 c-105 -322 -196 -700 -236 -981 l-16 -117 -297 -3 c-180 -1
-298 1 -298 7 0 34 270 451 425 656 167 220 445 559 453 551 2 -3 -12 -53 -31
-113z m-1023 -1181 c10 -17 -217 -433 -317 -581 -66 -98 -184 -220 -260 -269
-103 -67 -172 -85 -307 -80 -134 5 -201 26 -281 90 -101 80 -144 183 -137 332
3 71 10 103 30 148 113 245 462 360 1110 367 86 0 159 -3 162 -7z"/>
<path d="M7205 4046 c-366 -84 -822 -401 -1353 -940 -172 -175 -222 -217 -222
-187 0 15 49 177 91 304 76 224 217 583 273 695 20 40 36 74 36 78 0 12 -562
-4 -670 -20 -260 -36 -445 -92 -588 -175 -188 -110 -318 -273 -375 -471 -26
-87 -52 -238 -44 -246 3 -3 52 12 111 32 119 41 118 40 90 125 -34 103 0 249
82 358 142 189 448 303 821 305 72 1 134 -2 138 -5 3 -4 -8 -38 -25 -75 -177
-388 -427 -1096 -563 -1599 -79 -291 -137 -561 -137 -637 0 -29 2 -30 33 -25
17 4 78 11 134 18 56 7 107 15 114 19 6 4 15 45 20 91 23 250 106 642 224
1058 85 302 385 1138 427 1188 12 15 118 18 118 3 0 -5 -21 -58 -46 -117 -113
-264 -179 -444 -283 -766 -155 -481 -241 -912 -241 -1207 0 -111 20 -265 37
-281 14 -12 138 26 136 42 -1 8 -13 42 -27 75 -14 34 -33 106 -43 160 -14 86
-15 116 -5 229 16 179 117 728 144 778 5 9 19 17 32 17 21 0 25 -9 45 -102
120 -551 227 -868 358 -1067 71 -106 121 -141 204 -141 86 0 154 17 256 65
249 117 456 296 746 644 l28 33 50 -22 c98 -42 288 -37 433 11 86 29 206 91
307 160 47 32 89 59 92 59 3 0 -1 -21 -9 -47 -118 -385 -204 -747 -204 -866 0
-37 1 -38 28 -33 15 3 75 10 134 17 58 6 112 15 118 19 8 5 16 49 21 111 19
237 56 424 150 769 127 463 330 1083 465 1419 19 47 34 89 34 93 0 4 -39 8
-86 8 l-85 0 -41 -87 c-103 -223 -259 -629 -382 -993 -110 -325 -98 -299 -169
-351 -202 -149 -355 -207 -518 -196 -83 5 -126 21 -179 66 l-34 28 42 56 c39
52 67 105 59 113 -1 2 -27 -28 -56 -66 -29 -39 -56 -68 -61 -65 -4 2 -13 25
-19 49 -58 232 101 659 330 887 103 102 182 143 291 148 116 5 167 -16 250
-101 l68 -69 11 28 c5 15 22 54 36 85 14 32 23 63 20 70 -2 7 -38 24 -78 38
-108 35 -249 39 -355 10 -253 -69 -518 -315 -678 -629 -149 -294 -162 -505
-40 -668 l24 -32 -70 -78 c-128 -144 -312 -297 -462 -384 -95 -56 -231 -99
-318 -102 -62 -2 -71 1 -105 28 -111 90 -244 430 -371 953 -36 151 -44 198
-36 215 24 50 198 253 352 410 307 314 581 491 821 533 106 18 170 14 226 -15
38 -19 95 -76 119 -117 10 -17 20 -10 107 81 l95 100 -25 27 c-14 14 -53 39
-86 54 -74 33 -197 42 -292 20z"/>
<path d="M9390 3647 c-146 -45 -248 -114 -384 -259 -258 -274 -487 -781 -610
-1351 -49 -226 -74 -487 -46 -487 5 0 30 10 55 22 l45 22 0 103 c0 127 14 264
41 403 145 742 480 1315 823 1406 64 17 160 17 207 0 126 -45 209 -217 193
-401 -24 -268 -181 -582 -356 -710 -187 -139 -393 -78 -507 148 l-39 78 -52
-91 c-29 -50 -49 -97 -47 -105 9 -22 107 -96 163 -121 27 -13 85 -29 128 -35
312 -43 682 192 854 542 59 120 81 195 93 315 28 262 -47 440 -216 515 -78 34
-245 37 -345 6z"/>
<path d="M12024 800 c-25 -74 -28 -93 -17 -102 10 -8 25 0 62 35 59 55 71 59
181 55 l85 -3 3 -272 c3 -302 4 -295 -65 -308 -42 -7 -88 -33 -78 -43 4 -4
103 -8 221 -9 195 -1 215 0 212 15 -2 11 -21 21 -56 28 -30 7 -55 14 -57 16
-3 3 -8 417 -6 536 l1 43 93 -3 92 -3 28 -52 c22 -42 33 -53 53 -53 24 0 24 0
24 105 0 102 -1 105 -23 105 -12 0 -28 -9 -35 -20 -12 -19 -23 -20 -316 -20
-290 0 -304 1 -321 20 -35 39 -50 26 -81 -70z"/>
<path d="M2851 763 c-24 -59 -63 -153 -86 -208 -23 -55 -61 -147 -85 -205 -51
-122 -66 -141 -123 -155 -23 -6 -43 -18 -45 -26 -2 -13 19 -15 148 -15 134 0
150 2 150 17 0 12 -12 19 -44 23 -69 11 -73 22 -34 118 l33 83 120 0 119 0 38
-85 c42 -96 40 -105 -28 -116 -31 -4 -44 -11 -44 -23 0 -14 21 -16 195 -17
171 0 195 2 193 15 -2 9 -23 21 -49 28 -50 14 -53 18 -129 193 -18 41 -74 165
-124 275 l-92 200 -34 3 -35 3 -44 -108z m82 -197 c21 -48 36 -94 33 -101 -4
-10 -22 -12 -83 -8 -43 3 -80 7 -82 9 -9 8 72 195 82 191 6 -2 29 -43 50 -91z"/>
<path d="M3993 855 c-43 -18 -110 -87 -163 -166 -53 -79 -87 -116 -122 -135
-48 -25 -49 -23 -46 118 l3 132 55 10 c39 8 56 16 58 29 3 16 -10 17 -199 15
-220 -3 -256 -13 -154 -43 43 -12 58 -22 65 -41 15 -40 13 -516 -2 -537 -7 -9
-35 -25 -63 -35 -27 -11 -51 -27 -53 -35 -3 -14 20 -16 197 -16 159 0 201 3
201 13 0 8 -24 22 -52 32 l-53 19 -3 139 c-1 77 1 143 5 147 5 5 26 0 48 -10
42 -19 84 -69 164 -196 24 -38 55 -87 68 -108 l24 -38 259 3 c229 3 260 5 260
19 0 11 -15 18 -47 25 l-48 9 1 40 c1 22 13 66 28 98 l26 57 119 0 118 0 38
-90 c21 -50 35 -93 32 -96 -3 -3 -27 -11 -54 -18 -32 -8 -49 -18 -51 -31 -4
-16 2 -17 87 -11 51 4 137 4 192 0 l101 -7 -4 -68 c-3 -60 -1 -69 14 -69 11 0
24 17 37 45 11 24 31 56 45 70 l25 25 316 0 c361 0 368 -1 412 -73 16 -25 33
-53 39 -63 23 -37 34 -3 27 80 -6 76 -7 79 -37 91 -17 7 -39 22 -47 32 -9 10
-75 137 -147 283 -178 361 -184 370 -226 370 l-33 0 -154 -321 c-84 -176 -161
-327 -171 -336 -12 -11 -39 -16 -87 -17 -58 -1 -74 2 -91 19 -11 12 -55 102
-99 200 -43 99 -106 242 -141 318 l-64 138 -34 -3 -35 -3 -93 -225 c-190 -455
-173 -421 -213 -437 -47 -20 -112 -12 -160 20 -24 16 -65 65 -111 134 -81 122
-130 176 -171 194 -35 14 -36 20 -8 45 12 10 39 44 59 75 43 63 103 119 127
119 9 0 35 -18 59 -40 46 -42 62 -47 97 -29 30 16 37 28 37 66 0 50 -47 83
-118 83 -31 -1 -71 -7 -89 -15z m1565 -390 c61 -124 112 -231 112 -239 0 -20
-43 -23 -251 -18 -141 4 -182 8 -186 18 -3 8 6 42 20 76 36 89 180 388 187
388 3 0 56 -101 118 -225z m-940 95 c23 -51 38 -98 35 -103 -6 -10 -161 -2
-171 7 -4 5 48 144 71 190 12 25 19 15 65 -94z"/>
<path d="M8725 838 c-75 -181 -173 -419 -201 -486 -19 -45 -40 -95 -49 -111
-14 -28 -58 -51 -96 -51 -11 0 -19 -4 -19 -10 0 -5 -1 -13 -2 -17 -2 -5 63 -8
145 -8 129 -1 147 1 147 15 0 12 -14 19 -47 26 -41 8 -48 13 -50 34 -2 14 10
57 25 95 l27 70 120 3 120 3 38 -85 c20 -46 37 -89 37 -95 0 -6 -19 -15 -42
-21 -64 -16 -68 -18 -68 -32 0 -10 43 -13 195 -13 169 -1 195 1 193 14 -2 9
-20 20 -40 26 -21 6 -44 17 -52 25 -8 8 -55 105 -104 215 -205 462 -191 435
-229 435 -29 0 -36 -5 -48 -32z m17 -200 c27 -48 76 -173 71 -182 -6 -9 -159
-3 -169 7 -8 7 67 197 78 197 4 0 13 -10 20 -22z"/>
<path d="M10373 763 c-29 -60 -98 -202 -153 -318 -56 -116 -109 -218 -117
-227 -9 -10 -28 -18 -42 -18 -48 0 -51 -7 -66 -137 -5 -47 -3 -53 12 -53 12 0
30 21 51 60 19 33 42 65 53 71 13 6 132 9 348 7 l329 -3 27 -25 c15 -14 38
-46 51 -72 24 -47 37 -57 48 -39 3 5 3 44 -1 86 -6 75 -7 78 -37 90 -17 7 -38
22 -47 32 -9 10 -79 146 -157 303 -176 355 -173 350 -214 350 -32 0 -35 -3
-85 -107z m156 -299 c61 -124 111 -232 111 -239 0 -19 -83 -24 -270 -17 l-165
7 1 30 c2 31 191 445 204 445 4 0 57 -102 119 -226z"/>
<path d="M11556 862 c-34 -7 -14 -29 42 -42 53 -14 57 -17 60 -46 3 -29 -12
-45 -180 -207 -101 -96 -195 -185 -210 -197 l-28 -21 0 218 c0 120 4 224 9
231 4 7 30 16 57 20 35 5 50 12 52 25 3 16 -12 17 -198 17 -186 0 -201 -1
-198 -17 2 -13 16 -19 48 -23 25 -3 51 -9 58 -13 9 -6 12 -78 12 -302 l0 -295
-27 -6 c-16 -3 -41 -9 -58 -13 -16 -4 -30 -14 -30 -21 0 -12 36 -14 198 -15
181 -2 197 0 197 16 0 13 -11 19 -42 24 -74 11 -78 14 -78 48 0 33 44 78 363
376 l57 54 0 -231 0 -230 -30 -6 c-16 -3 -43 -9 -60 -12 -19 -3 -30 -12 -30
-22 0 -15 20 -17 200 -18 147 0 200 3 200 12 0 18 -21 32 -63 39 -20 4 -39 11
-42 15 -10 16 -16 537 -6 562 8 20 19 27 58 34 32 6 49 15 51 26 3 16 -14 17
-181 20 -101 2 -191 2 -201 0z"/>
<path d="M5980 839 c0 -13 14 -18 55 -24 39 -4 58 -12 65 -25 6 -11 10 -132
10 -300 l0 -280 -26 -10 c-14 -6 -40 -10 -58 -10 -32 0 -66 -23 -49 -33 10 -6
763 -8 763 -3 0 2 7 40 15 83 20 102 19 113 -5 113 -12 0 -26 -12 -36 -32 -46
-93 -108 -118 -286 -118 -161 0 -160 -1 -156 163 l3 122 73 7 c41 4 97 4 125
0 52 -7 52 -7 69 -57 11 -36 22 -51 37 -53 20 -3 21 0 18 131 -1 75 -5 138 -8
141 -14 15 -36 -8 -47 -49 -7 -25 -20 -49 -32 -55 -12 -6 -64 -10 -127 -8
l-108 3 0 130 0 130 156 3 c154 2 157 2 186 -22 16 -14 38 -43 48 -65 14 -31
24 -41 42 -41 22 0 23 3 23 73 0 39 -5 79 -10 87 -8 13 -61 15 -375 15 -331 0
-365 -2 -365 -16z"/>
<path d="M6875 850 c-10 -17 3 -27 50 -39 26 -7 49 -19 55 -31 15 -28 -5 -512
-23 -549 -9 -19 -24 -29 -57 -37 -27 -6 -45 -16 -45 -25 0 -11 28 -14 148 -16
133 -2 148 -1 145 14 -2 9 -20 21 -40 27 -77 23 -78 25 -77 218 1 95 4 200 8
233 l7 60 54 -105 c94 -184 210 -425 210 -437 0 -8 13 -13 29 -13 27 0 31 5
47 53 18 55 219 486 234 501 9 9 17 -82 26 -315 7 -176 5 -181 -65 -193 -30
-4 -41 -11 -41 -24 0 -16 17 -17 195 -18 169 0 195 2 193 15 -2 8 -24 20 -52
27 -27 7 -52 16 -57 21 -4 4 -13 98 -18 208 -6 110 -13 234 -17 277 -6 72 -5
77 18 91 12 9 40 19 61 22 27 5 37 12 37 26 0 17 -8 19 -89 19 -48 0 -110 -3
-136 -7 l-48 -6 -54 -116 c-97 -211 -168 -350 -178 -350 -5 -1 -63 104 -127
233 l-117 233 -38 7 c-61 10 -231 7 -238 -4z"/>
<path d="M9165 850 c-8 -14 11 -30 36 -30 23 0 67 -51 184 -213 55 -76 123
-170 152 -210 29 -40 53 -80 53 -90 0 -26 -63 -87 -90 -87 -13 0 -42 18 -66
40 -26 23 -53 40 -67 40 -35 0 -77 -37 -77 -66 0 -61 48 -94 137 -94 49 0 68
6 113 33 69 42 98 86 244 372 65 126 122 235 128 242 6 8 30 18 54 24 26 7 44
17 44 25 0 11 -20 14 -89 14 -49 0 -103 3 -120 6 -27 6 -31 4 -31 -15 0 -15 6
-21 23 -21 13 0 31 -6 42 -13 17 -13 13 -24 -71 -185 -49 -95 -91 -172 -94
-172 -3 0 -14 17 -25 37 -11 20 -62 95 -113 166 -51 72 -91 135 -89 141 2 6
14 12 28 14 51 6 69 13 69 27 0 12 -18 15 -93 15 -52 0 -134 3 -184 6 -67 5
-92 4 -98 -6z"/>
<path d="M1705 530 c11 -5 27 -9 35 -9 9 0 8 4 -5 9 -11 5 -27 9 -35 9 -9 0
-8 -4 5 -9z"/>
<path d="M8007 424 c-4 -4 -7 -27 -7 -51 l0 -43 166 0 165 0 -3 48 -3 47 -156
3 c-85 1 -158 -1 -162 -4z"/>
<path d="M1768 323 c7 -3 16 -2 19 1 4 3 -2 6 -13 5 -11 0 -14 -3 -6 -6z"/>
</g>
</svg>
